<svg id="Layer_1" data-name="Layer 1" xmlns="http://www.w3.org/2000/svg" viewBox="0 0 54.51 54.51"><defs><style>.cls-1,.cls-2,.cls-3{fill:none;stroke:#1be599;stroke-miterlimit:10;}.cls-1{stroke-width:4px;}.cls-2,.cls-3{stroke-width:5px;}.cls-3{stroke-linecap:round;}</style></defs><circle class="cls-1" cx="27.25" cy="27.25" r="6.26"/><circle class="cls-2" cx="27.25" cy="27.25" r="15.63"/><path class="cls-3" d="M44.25,74a24.76,24.76,0,0,1-5.91-2.12" transform="translate(-22.75 -22.75)"/><path class="cls-3" d="M73,40.84A24.64,24.64,0,0,1,74.75,50" transform="translate(-22.75 -22.75)"/><path class="cls-3" d="M25.25,50a24.84,24.84,0,0,1,.5-5,25.35,25.35,0,0,1,.82-3A24.76,24.76,0,0,1,50,25.25c.85,0,1.7,0,2.53.12" transform="translate(-22.75 -22.75)"/><path class="cls-3" d="M73.32,58.32A24.76,24.76,0,0,1,50,74.75" transform="translate(-22.75 -22.75)"/></svg>