<svg width="187" height="187" viewBox="0 0 187 187" fill="none" xmlns="http://www.w3.org/2000/svg">
<g clip-path="url(#clip0_21_86)">
<path d="M3.91493 78.7194C13.8469 43.1998 38.3484 17.4154 62.165 17.4154C64.078 17.4154 65.9891 17.5819 67.8509 17.9111C68.9068 18.0966 69.8301 18.7172 70.4016 19.6179C70.9711 20.5242 71.1319 21.6255 70.8424 22.6548L65.9399 40.1913C65.4668 41.8848 63.8339 43.0295 62.1366 42.952L61.7468 42.9444C52.9142 42.9444 36.7722 56.1819 28.5433 85.6031C28.2178 86.7705 27.9094 87.9645 27.6123 89.2095C36.8498 84.6381 47.8698 83.5804 57.849 86.3599C80.3619 92.6589 93.5502 116.095 87.2569 138.604C82.1556 156.843 65.3779 169.585 46.4563 169.585C42.602 169.585 38.7533 169.053 35.0163 168.007C20.1705 163.857 9.00863 151.532 3.58571 133.308C-1.3093 116.867 -1.18633 96.9712 3.91493 78.7194Z" fill="#697971" fill-opacity="0.3"/>
<path d="M160.343 17.4191C162.253 17.4191 164.166 17.5818 166.025 17.911C167.079 18.0927 168.005 18.7171 168.574 19.6178C169.144 20.5241 169.305 21.6253 169.017 22.6547L164.113 40.1912C163.639 41.8847 162.037 43.0294 160.309 42.9518L159.923 42.9443C151.091 42.9443 134.947 56.1818 126.718 85.603C126.39 86.778 126.082 87.9719 125.787 89.2094C135.028 84.6379 146.044 83.5802 156.024 86.3598C178.533 92.6588 191.725 116.095 185.428 138.604C180.326 156.843 163.549 169.584 144.627 169.584C140.773 169.584 136.924 169.053 133.185 168.006C118.341 163.857 107.179 151.531 101.755 133.308C96.8615 116.867 96.9826 96.9691 102.086 78.7155C112.023 43.1997 136.521 17.4191 160.343 17.4191Z" fill="#697971" fill-opacity="0.3"/>
</g>
<defs>
<clipPath id="clip0_21_86">
<rect width="187" height="187" fill="white" transform="matrix(-1 0 0 1 187 0)"/>
</clipPath>
</defs>
</svg>
